<?xml version="1.0" standalone="no"?>
<!DOCTYPE svg PUBLIC "-//W3C//DTD SVG 20010904//EN"
  "http://www.w3.org/TR/2001/REC-SVG-20010904/DTD/svg10.dtd">
<svg width="24" height="24">
  <circle cx="0" cy="0" r="1" fill="rgba(255,255,255,0)"/>
  <circle cx="1" cy="0" r="1" fill="rgba(255,255,255,0)"/>
  <circle cx="2" cy="0" r="1" fill="rgba(255,255,255,0)"/>
  <circle cx="3" cy="0" r="1" fill="rgba(255,255,255,0)"/>
  <circle cx="4" cy="0" r="1" fill="rgba(255,255,255,0)"/>
  <circle cx="5" cy="0" r="1" fill="rgba(255,255,255,0)"/>
  <circle cx="6" cy="0" r="1" fill="rgba(255,255,255,0)"/>
  <circle cx="7" cy="0" r="1" fill="rgba(255,255,255,0)"/>
  <circle cx="8" cy="0" r="1" fill="rgba(34,128,5,0.0470588)"/>
  <circle cx="9" cy="0" r="1" fill="rgba(34,128,5,0.494118)"/>
  <circle cx="10" cy="0" r="1" fill="rgba(34,128,5,0.776471)"/>
  <circle cx="11" cy="0" r="1" fill="rgba(34,128,5,0.988235)"/>
  <circle cx="12" cy="0" r="1" fill="rgba(34,128,5,0.988235)"/>
  <circle cx="13" cy="0" r="1" fill="rgba(34,128,5,0.776471)"/>
  <circle cx="14" cy="0" r="1" fill="rgba(34,128,5,0.494118)"/>
  <circle cx="15" cy="0" r="1" fill="rgba(34,128,5,0.0470588)"/>
  <circle cx="16" cy="0" r="1" fill="rgba(255,255,255,0)"/>
  <circle cx="17" cy="0" r="1" fill="rgba(255,255,255,0)"/>
  <circle cx="18" cy="0" r="1" fill="rgba(255,255,255,0)"/>
  <circle cx="19" cy="0" r="1" fill="rgba(255,255,255,0)"/>
  <circle cx="20" cy="0" r="1" fill="rgba(255,255,255,0)"/>
  <circle cx="21" cy="0" r="1" fill="rgba(255,255,255,0)"/>
  <circle cx="22" cy="0" r="1" fill="rgba(255,255,255,0)"/>
  <circle cx="23" cy="0" r="1" fill="rgba(255,255,255,0)"/>
  <circle cx="0" cy="1" r="1" fill="rgba(255,255,255,0)"/>
  <circle cx="1" cy="1" r="1" fill="rgba(255,255,255,0)"/>
  <circle cx="2" cy="1" r="1" fill="rgba(255,255,255,0)"/>
  <circle cx="3" cy="1" r="1" fill="rgba(255,255,255,0)"/>
  <circle cx="4" cy="1" r="1" fill="rgba(255,255,255,0)"/>
  <circle cx="5" cy="1" r="1" fill="rgba(255,255,255,0)"/>
  <circle cx="6" cy="1" r="1" fill="rgba(255,255,255,0)"/>
  <circle cx="7" cy="1" r="1" fill="rgba(34,128,5,0.247059)"/>
  <circle cx="8" cy="1" r="1" fill="rgba(34,128,5,0.870588)"/>
  <circle cx="9" cy="1" r="1" fill="rgba(68,161,23,1)"/>
  <circle cx="10" cy="1" r="1" fill="rgba(95,185,45,1)"/>
  <circle cx="11" cy="1" r="1" fill="rgba(114,201,62,1)"/>
  <circle cx="12" cy="1" r="1" fill="rgba(109,200,49,1)"/>
  <circle cx="13" cy="1" r="1" fill="rgba(80,181,1,1)"/>
  <circle cx="14" cy="1" r="1" fill="rgba(63,160,5,1)"/>
  <circle cx="15" cy="1" r="1" fill="rgba(34,128,5,0.870588)"/>
  <circle cx="16" cy="1" r="1" fill="rgba(34,128,5,0.247059)"/>
  <circle cx="17" cy="1" r="1" fill="rgba(255,255,255,0)"/>
  <circle cx="18" cy="1" r="1" fill="rgba(255,255,255,0)"/>
  <circle cx="19" cy="1" r="1" fill="rgba(255,255,255,0)"/>
  <circle cx="20" cy="1" r="1" fill="rgba(255,255,255,0)"/>
  <circle cx="21" cy="1" r="1" fill="rgba(255,255,255,0)"/>
  <circle cx="22" cy="1" r="1" fill="rgba(255,255,255,0)"/>
  <circle cx="23" cy="1" r="1" fill="rgba(255,255,255,0)"/>
  <circle cx="0" cy="2" r="1" fill="rgba(255,255,255,0)"/>
  <circle cx="1" cy="2" r="1" fill="rgba(255,255,255,0)"/>
  <circle cx="2" cy="2" r="1" fill="rgba(255,255,255,0)"/>
  <circle cx="3" cy="2" r="1" fill="rgba(255,255,255,0)"/>
  <circle cx="4" cy="2" r="1" fill="rgba(255,255,255,0)"/>
  <circle cx="5" cy="2" r="1" fill="rgba(255,255,255,0)"/>
  <circle cx="6" cy="2" r="1" fill="rgba(34,128,5,0.317647)"/>
  <circle cx="7" cy="2" r="1" fill="rgba(53,146,17,1)"/>
  <circle cx="8" cy="2" r="1" fill="rgba(77,173,18,1)"/>
  <circle cx="9" cy="2" r="1" fill="rgba(75,178,23,1)"/>
  <circle cx="10" cy="2" r="1" fill="rgba(58,166,16,1)"/>
  <circle cx="11" cy="2" r="1" fill="rgba(51,159,17,1)"/>
  <circle cx="12" cy="2" r="1" fill="rgba(57,162,26,1)"/>
  <circle cx="13" cy="2" r="1" fill="rgba(70,170,35,1)"/>
  <circle cx="14" cy="2" r="1" fill="rgba(82,180,37,1)"/>
  <circle cx="15" cy="2" r="1" fill="rgba(76,173,16,1)"/>
  <circle cx="16" cy="2" r="1" fill="rgba(48,145,4,1)"/>
  <circle cx="17" cy="2" r="1" fill="rgba(34,128,5,0.317647)"/>
  <circle cx="18" cy="2" r="1" fill="rgba(255,255,255,0)"/>
  <circle cx="19" cy="2" r="1" fill="rgba(255,255,255,0)"/>
  <circle cx="20" cy="2" r="1" fill="rgba(255,255,255,0)"/>
  <circle cx="21" cy="2" r="1" fill="rgba(255,255,255,0)"/>
  <circle cx="22" cy="2" r="1" fill="rgba(255,255,255,0)"/>
  <circle cx="23" cy="2" r="1" fill="rgba(255,255,255,0)"/>
  <circle cx="0" cy="3" r="1" fill="rgba(255,255,255,0)"/>
  <circle cx="1" cy="3" r="1" fill="rgba(255,255,255,0)"/>
  <circle cx="2" cy="3" r="1" fill="rgba(255,255,255,0)"/>
  <circle cx="3" cy="3" r="1" fill="rgba(255,255,255,0)"/>
  <circle cx="4" cy="3" r="1" fill="rgba(255,255,255,0)"/>
  <circle cx="5" cy="3" r="1" fill="rgba(34,128,5,0.0705882)"/>
  <circle cx="6" cy="3" r="1" fill="rgba(34,128,5,0.952941)"/>
  <circle cx="7" cy="3" r="1" fill="rgba(73,172,19,1)"/>
  <circle cx="8" cy="3" r="1" fill="rgba(46,159,5,1)"/>
  <circle cx="9" cy="3" r="1" fill="rgba(39,151,5,1)"/>
  <circle cx="10" cy="3" r="1" fill="rgba(41,142,10,1)"/>
  <circle cx="11" cy="3" r="1" fill="rgba(37,132,7,1)"/>
  <circle cx="12" cy="3" r="1" fill="rgba(37,132,8,1)"/>
  <circle cx="13" cy="3" r="1" fill="rgba(44,144,14,1)"/>
  <circle cx="14" cy="3" r="1" fill="rgba(55,158,24,1)"/>
  <circle cx="15" cy="3" r="1" fill="rgba(64,167,33,1)"/>
  <circle cx="16" cy="3" r="1" fill="rgba(78,173,33,1)"/>
  <circle cx="17" cy="3" r="1" fill="rgba(34,128,5,0.952941)"/>
  <circle cx="18" cy="3" r="1" fill="rgba(34,128,5,0.0705882)"/>
  <circle cx="19" cy="3" r="1" fill="rgba(255,255,255,0)"/>
  <circle cx="20" cy="3" r="1" fill="rgba(255,255,255,0)"/>
  <circle cx="21" cy="3" r="1" fill="rgba(255,255,255,0)"/>
  <circle cx="22" cy="3" r="1" fill="rgba(255,255,255,0)"/>
  <circle cx="23" cy="3" r="1" fill="rgba(255,255,255,0)"/>
  <circle cx="0" cy="4" r="1" fill="rgba(255,255,255,0)"/>
  <circle cx="1" cy="4" r="1" fill="rgba(255,255,255,0)"/>
  <circle cx="2" cy="4" r="1" fill="rgba(255,255,255,0)"/>
  <circle cx="3" cy="4" r="1" fill="rgba(255,255,255,0)"/>
  <circle cx="4" cy="4" r="1" fill="rgba(255,255,255,0)"/>
  <circle cx="5" cy="4" r="1" fill="rgba(34,128,5,0.517647)"/>
  <circle cx="6" cy="4" r="1" fill="rgba(58,155,13,1)"/>
  <circle cx="7" cy="4" r="1" fill="rgba(47,158,15,1)"/>
  <circle cx="8" cy="4" r="1" fill="rgba(49,155,18,1)"/>
  <circle cx="9" cy="4" r="1" fill="rgba(34,128,5,0.976471)"/>
  <circle cx="10" cy="4" r="1" fill="rgba(34,128,5,0.482353)"/>
  <circle cx="11" cy="4" r="1" fill="rgba(34,128,5,0.129412)"/>
  <circle cx="12" cy="4" r="1" fill="rgba(34,128,5,0.129412)"/>
  <circle cx="13" cy="4" r="1" fill="rgba(34,128,5,0.482353)"/>
  <circle cx="14" cy="4" r="1" fill="rgba(34,128,5,0.976471)"/>
  <circle cx="15" cy="4" r="1" fill="rgba(48,155,16,1)"/>
  <circle cx="16" cy="4" r="1" fill="rgba(52,160,20,1)"/>
  <circle cx="17" cy="4" r="1" fill="rgba(61,156,19,1)"/>
  <circle cx="18" cy="4" r="1" fill="rgba(34,128,5,0.517647)"/>
  <circle cx="19" cy="4" r="1" fill="rgba(255,255,255,0)"/>
  <circle cx="20" cy="4" r="1" fill="rgba(255,255,255,0)"/>
  <circle cx="21" cy="4" r="1" fill="rgba(255,255,255,0)"/>
  <circle cx="22" cy="4" r="1" fill="rgba(255,255,255,0)"/>
  <circle cx="23" cy="4" r="1" fill="rgba(255,255,255,0)"/>
  <circle cx="0" cy="5" r="1" fill="rgba(255,255,255,0)"/>
  <circle cx="1" cy="5" r="1" fill="rgba(255,255,255,0)"/>
  <circle cx="2" cy="5" r="1" fill="rgba(255,255,255,0)"/>
  <circle cx="3" cy="5" r="1" fill="rgba(255,255,255,0)"/>
  <circle cx="4" cy="5" r="1" fill="rgba(255,255,255,0)"/>
  <circle cx="5" cy="5" r="1" fill="rgba(34,128,5,0.811765)"/>
  <circle cx="6" cy="5" r="1" fill="rgba(54,157,24,1)"/>
  <circle cx="7" cy="5" r="1" fill="rgba(57,162,26,1)"/>
  <circle cx="8" cy="5" r="1" fill="rgba(46,144,17,1)"/>
  <circle cx="9" cy="5" r="1" fill="rgba(34,128,5,0.470588)"/>
  <circle cx="10" cy="5" r="1" fill="rgba(255,255,255,0)"/>
  <circle cx="11" cy="5" r="1" fill="rgba(255,255,255,0)"/>
  <circle cx="12" cy="5" r="1" fill="rgba(255,255,255,0)"/>
  <circle cx="13" cy="5" r="1" fill="rgba(255,255,255,0)"/>
  <circle cx="14" cy="5" r="1" fill="rgba(34,128,5,0.470588)"/>
  <circle cx="15" cy="5" r="1" fill="rgba(38,141,7,1)"/>
  <circle cx="16" cy="5" r="1" fill="rgba(46,157,10,1)"/>
  <circle cx="17" cy="5" r="1" fill="rgba(49,154,16,1)"/>
  <circle cx="18" cy="5" r="1" fill="rgba(34,128,5,0.811765)"/>
  <circle cx="19" cy="5" r="1" fill="rgba(255,255,255,0)"/>
  <circle cx="20" cy="5" r="1" fill="rgba(255,255,255,0)"/>
  <circle cx="21" cy="5" r="1" fill="rgba(255,255,255,0)"/>
  <circle cx="22" cy="5" r="1" fill="rgba(255,255,255,0)"/>
  <circle cx="23" cy="5" r="1" fill="rgba(255,255,255,0)"/>
  <circle cx="0" cy="6" r="1" fill="rgba(255,255,255,0)"/>
  <circle cx="1" cy="6" r="1" fill="rgba(255,255,255,0)"/>
  <circle cx="2" cy="6" r="1" fill="rgba(255,255,255,0)"/>
  <circle cx="3" cy="6" r="1" fill="rgba(255,255,255,0)"/>
  <circle cx="4" cy="6" r="1" fill="rgba(255,255,255,0)"/>
  <circle cx="5" cy="6" r="1" fill="rgba(34,128,5,0.976471)"/>
  <circle cx="6" cy="6" r="1" fill="rgba(44,155,10,1)"/>
  <circle cx="7" cy="6" r="1" fill="rgba(46,157,10,1)"/>
  <circle cx="8" cy="6" r="1" fill="rgba(35,131,5,1)"/>
  <circle cx="9" cy="6" r="1" fill="rgba(34,128,5,0.0941176)"/>
  <circle cx="10" cy="6" r="1" fill="rgba(255,255,255,0)"/>
  <circle cx="11" cy="6" r="1" fill="rgba(255,255,255,0)"/>
  <circle cx="12" cy="6" r="1" fill="rgba(255,255,255,0)"/>
  <circle cx="13" cy="6" r="1" fill="rgba(255,255,255,0)"/>
  <circle cx="14" cy="6" r="1" fill="rgba(34,128,5,0.0941176)"/>
  <circle cx="15" cy="6" r="1" fill="rgba(34,130,5,1)"/>
  <circle cx="16" cy="6" r="1" fill="rgba(45,157,13,1)"/>
  <circle cx="17" cy="6" r="1" fill="rgba(46,156,14,1)"/>
  <circle cx="18" cy="6" r="1" fill="rgba(34,128,5,0.941176)"/>
  <circle cx="19" cy="6" r="1" fill="rgba(255,255,255,0)"/>
  <circle cx="20" cy="6" r="1" fill="rgba(255,255,255,0)"/>
  <circle cx="21" cy="6" r="1" fill="rgba(255,255,255,0)"/>
  <circle cx="22" cy="6" r="1" fill="rgba(255,255,255,0)"/>
  <circle cx="23" cy="6" r="1" fill="rgba(255,255,255,0)"/>
  <circle cx="0" cy="7" r="1" fill="rgba(255,255,255,0)"/>
  <circle cx="1" cy="7" r="1" fill="rgba(255,255,255,0)"/>
  <circle cx="2" cy="7" r="1" fill="rgba(255,255,255,0)"/>
  <circle cx="3" cy="7" r="1" fill="rgba(255,255,255,0)"/>
  <circle cx="4" cy="7" r="1" fill="rgba(255,255,255,0)"/>
  <circle cx="5" cy="7" r="1" fill="rgba(34,128,5,0.952941)"/>
  <circle cx="6" cy="7" r="1" fill="rgba(42,154,6,1)"/>
  <circle cx="7" cy="7" r="1" fill="rgba(36,152,0,1)"/>
  <circle cx="8" cy="7" r="1" fill="rgba(35,131,5,1)"/>
  <circle cx="9" cy="7" r="1" fill="rgba(34,128,5,0.0941176)"/>
  <circle cx="10" cy="7" r="1" fill="rgba(255,255,255,0)"/>
  <circle cx="11" cy="7" r="1" fill="rgba(255,255,255,0)"/>
  <circle cx="12" cy="7" r="1" fill="rgba(255,255,255,0)"/>
  <circle cx="13" cy="7" r="1" fill="rgba(255,255,255,0)"/>
  <circle cx="14" cy="7" r="1" fill="rgba(34,128,5,0.0941176)"/>
  <circle cx="15" cy="7" r="1" fill="rgba(36,131,7,1)"/>
  <circle cx="16" cy="7" r="1" fill="rgba(55,160,23,1)"/>
  <circle cx="17" cy="7" r="1" fill="rgba(57,161,26,1)"/>
  <circle cx="18" cy="7" r="1" fill="rgba(34,128,5,0.929412)"/>
  <circle cx="19" cy="7" r="1" fill="rgba(255,255,255,0)"/>
  <circle cx="20" cy="7" r="1" fill="rgba(255,255,255,0)"/>
  <circle cx="21" cy="7" r="1" fill="rgba(255,255,255,0)"/>
  <circle cx="22" cy="7" r="1" fill="rgba(255,255,255,0)"/>
  <circle cx="23" cy="7" r="1" fill="rgba(255,255,255,0)"/>
  <circle cx="0" cy="8" r="1" fill="rgba(255,255,255,0)"/>
  <circle cx="1" cy="8" r="1" fill="rgba(255,255,255,0)"/>
  <circle cx="2" cy="8" r="1" fill="rgba(255,255,255,0)"/>
  <circle cx="3" cy="8" r="1" fill="rgba(255,255,255,0)"/>
  <circle cx="4" cy="8" r="1" fill="rgba(255,255,255,0)"/>
  <circle cx="5" cy="8" r="1" fill="rgba(34,128,5,0.776471)"/>
  <circle cx="6" cy="8" r="1" fill="rgba(50,154,20,1)"/>
  <circle cx="7" cy="8" r="1" fill="rgba(53,160,21,1)"/>
  <circle cx="8" cy="8" r="1" fill="rgba(42,142,11,1)"/>
  <circle cx="9" cy="8" r="1" fill="rgba(34,128,5,0.447059)"/>
  <circle cx="10" cy="8" r="1" fill="rgba(255,255,255,0)"/>
  <circle cx="11" cy="8" r="1" fill="rgba(255,255,255,0)"/>
  <circle cx="12" cy="8" r="1" fill="rgba(255,255,255,0)"/>
  <circle cx="13" cy="8" r="1" fill="rgba(255,255,255,0)"/>
  <circle cx="14" cy="8" r="1" fill="rgba(34,128,5,0.447059)"/>
  <circle cx="15" cy="8" r="1" fill="rgba(44,143,13,1)"/>
  <circle cx="16" cy="8" r="1" fill="rgba(51,158,17,1)"/>
  <circle cx="17" cy="8" r="1" fill="rgba(47,151,16,1)"/>
  <circle cx="18" cy="8" r="1" fill="rgba(34,128,5,0.752941)"/>
  <circle cx="19" cy="8" r="1" fill="rgba(255,255,255,0)"/>
  <circle cx="20" cy="8" r="1" fill="rgba(255,255,255,0)"/>
  <circle cx="21" cy="8" r="1" fill="rgba(255,255,255,0)"/>
  <circle cx="22" cy="8" r="1" fill="rgba(255,255,255,0)"/>
  <circle cx="23" cy="8" r="1" fill="rgba(255,255,255,0)"/>
  <circle cx="0" cy="9" r="1" fill="rgba(255,255,255,0)"/>
  <circle cx="1" cy="9" r="1" fill="rgba(255,255,255,0)"/>
  <circle cx="2" cy="9" r="1" fill="rgba(255,255,255,0)"/>
  <circle cx="3" cy="9" r="1" fill="rgba(255,255,255,0)"/>
  <circle cx="4" cy="9" r="1" fill="rgba(255,255,255,0)"/>
  <circle cx="5" cy="9" r="1" fill="rgba(34,128,5,0.470588)"/>
  <circle cx="6" cy="9" r="1" fill="rgba(46,144,17,1)"/>
  <circle cx="7" cy="9" r="1" fill="rgba(53,160,19,1)"/>
  <circle cx="8" cy="9" r="1" fill="rgba(44,153,12,1)"/>
  <circle cx="9" cy="9" r="1" fill="rgba(34,128,5,0.976471)"/>
  <circle cx="10" cy="9" r="1" fill="rgba(34,128,5,0.435294)"/>
  <circle cx="11" cy="9" r="1" fill="rgba(34,128,5,0.0941176)"/>
  <circle cx="12" cy="9" r="1" fill="rgba(34,128,5,0.0941176)"/>
  <circle cx="13" cy="9" r="1" fill="rgba(34,128,5,0.435294)"/>
  <circle cx="14" cy="9" r="1" fill="rgba(34,128,5,0.976471)"/>
  <circle cx="15" cy="9" r="1" fill="rgba(48,154,14,1)"/>
  <circle cx="16" cy="9" r="1" fill="rgba(52,160,19,1)"/>
  <circle cx="17" cy="9" r="1" fill="rgba(42,144,11,1)"/>
  <circle cx="18" cy="9" r="1" fill="rgba(34,128,5,0.529412)"/>
  <circle cx="19" cy="9" r="1" fill="rgba(255,255,255,0)"/>
  <circle cx="20" cy="9" r="1" fill="rgba(255,255,255,0)"/>
  <circle cx="21" cy="9" r="1" fill="rgba(255,255,255,0)"/>
  <circle cx="22" cy="9" r="1" fill="rgba(255,255,255,0)"/>
  <circle cx="23" cy="9" r="1" fill="rgba(255,255,255,0)"/>
  <circle cx="0" cy="10" r="1" fill="rgba(255,255,255,0)"/>
  <circle cx="1" cy="10" r="1" fill="rgba(255,255,255,0)"/>
  <circle cx="2" cy="10" r="1" fill="rgba(255,255,255,0)"/>
  <circle cx="3" cy="10" r="1" fill="rgba(255,255,255,0)"/>
  <circle cx="4" cy="10" r="1" fill="rgba(255,255,255,0)"/>
  <circle cx="5" cy="10" r="1" fill="rgba(34,128,5,0.176471)"/>
  <circle cx="6" cy="10" r="1" fill="rgba(36,133,7,1)"/>
  <circle cx="7" cy="10" r="1" fill="rgba(51,159,19,1)"/>
  <circle cx="8" cy="10" r="1" fill="rgba(55,161,23,1)"/>
  <circle cx="9" cy="10" r="1" fill="rgba(77,174,31,1)"/>
  <circle cx="10" cy="10" r="1" fill="rgba(65,159,18,1)"/>
  <circle cx="11" cy="10" r="1" fill="rgba(42,135,10,1)"/>
  <circle cx="12" cy="10" r="1" fill="rgba(41,135,10,1)"/>
  <circle cx="13" cy="10" r="1" fill="rgba(64,158,12,1)"/>
  <circle cx="14" cy="10" r="1" fill="rgba(73,173,21,1)"/>
  <circle cx="15" cy="10" r="1" fill="rgba(49,158,16,1)"/>
  <circle cx="16" cy="10" r="1" fill="rgba(48,158,15,1)"/>
  <circle cx="17" cy="10" r="1" fill="rgba(36,133,5,1)"/>
  <circle cx="18" cy="10" r="1" fill="rgba(34,128,5,0.188235)"/>
  <circle cx="19" cy="10" r="1" fill="rgba(255,255,255,0)"/>
  <circle cx="20" cy="10" r="1" fill="rgba(255,255,255,0)"/>
  <circle cx="21" cy="10" r="1" fill="rgba(255,255,255,0)"/>
  <circle cx="22" cy="10" r="1" fill="rgba(255,255,255,0)"/>
  <circle cx="23" cy="10" r="1" fill="rgba(255,255,255,0)"/>
  <circle cx="0" cy="11" r="1" fill="rgba(255,255,255,0)"/>
  <circle cx="1" cy="11" r="1" fill="rgba(255,255,255,0)"/>
  <circle cx="2" cy="11" r="1" fill="rgba(255,255,255,0)"/>
  <circle cx="3" cy="11" r="1" fill="rgba(255,255,255,0)"/>
  <circle cx="4" cy="11" r="1" fill="rgba(255,255,255,0)"/>
  <circle cx="5" cy="11" r="1" fill="rgba(255,255,255,0)"/>
  <circle cx="6" cy="11" r="1" fill="rgba(34,128,5,0.811765)"/>
  <circle cx="7" cy="11" r="1" fill="rgba(51,154,20,1)"/>
  <circle cx="8" cy="11" r="1" fill="rgba(46,157,13,1)"/>
  <circle cx="9" cy="11" r="1" fill="rgba(47,158,14,1)"/>
  <circle cx="10" cy="11" r="1" fill="rgba(83,181,31,1)"/>
  <circle cx="11" cy="11" r="1" fill="rgba(100,195,34,1)"/>
  <circle cx="12" cy="11" r="1" fill="rgba(106,197,50,1)"/>
  <circle cx="13" cy="11" r="1" fill="rgba(78,180,22,1)"/>
  <circle cx="14" cy="11" r="1" fill="rgba(52,160,19,1)"/>
  <circle cx="15" cy="11" r="1" fill="rgba(56,161,24,1)"/>
  <circle cx="16" cy="11" r="1" fill="rgba(51,155,20,1)"/>
  <circle cx="17" cy="11" r="1" fill="rgba(34,128,5,0.823529)"/>
  <circle cx="18" cy="11" r="1" fill="rgba(255,255,255,0)"/>
  <circle cx="19" cy="11" r="1" fill="rgba(255,255,255,0)"/>
  <circle cx="20" cy="11" r="1" fill="rgba(255,255,255,0)"/>
  <circle cx="21" cy="11" r="1" fill="rgba(255,255,255,0)"/>
  <circle cx="22" cy="11" r="1" fill="rgba(255,255,255,0)"/>
  <circle cx="23" cy="11" r="1" fill="rgba(255,255,255,0)"/>
  <circle cx="0" cy="12" r="1" fill="rgba(255,255,255,0)"/>
  <circle cx="1" cy="12" r="1" fill="rgba(255,255,255,0)"/>
  <circle cx="2" cy="12" r="1" fill="rgba(255,255,255,0)"/>
  <circle cx="3" cy="12" r="1" fill="rgba(255,255,255,0)"/>
  <circle cx="4" cy="12" r="1" fill="rgba(255,255,255,0)"/>
  <circle cx="5" cy="12" r="1" fill="rgba(255,255,255,0)"/>
  <circle cx="6" cy="12" r="1" fill="rgba(34,128,5,0.423529)"/>
  <circle cx="7" cy="12" r="1" fill="rgba(42,142,11,1)"/>
  <circle cx="8" cy="12" r="1" fill="rgba(53,160,22,1)"/>
  <circle cx="9" cy="12" r="1" fill="rgba(56,162,26,1)"/>
  <circle cx="10" cy="12" r="1" fill="rgba(51,159,19,1)"/>
  <circle cx="11" cy="12" r="1" fill="rgba(46,157,13,1)"/>
  <circle cx="12" cy="12" r="1" fill="rgba(46,157,13,1)"/>
  <circle cx="13" cy="12" r="1" fill="rgba(50,158,17,1)"/>
  <circle cx="14" cy="12" r="1" fill="rgba(47,157,14,1)"/>
  <circle cx="15" cy="12" r="1" fill="rgba(42,155,6,1)"/>
  <circle cx="16" cy="12" r="1" fill="rgba(37,139,6,1)"/>
  <circle cx="17" cy="12" r="1" fill="rgba(34,128,5,0.423529)"/>
  <circle cx="18" cy="12" r="1" fill="rgba(255,255,255,0)"/>
  <circle cx="19" cy="12" r="1" fill="rgba(255,255,255,0)"/>
  <circle cx="20" cy="12" r="1" fill="rgba(255,255,255,0)"/>
  <circle cx="21" cy="12" r="1" fill="rgba(255,255,255,0)"/>
  <circle cx="22" cy="12" r="1" fill="rgba(255,255,255,0)"/>
  <circle cx="23" cy="12" r="1" fill="rgba(255,255,255,0)"/>
  <circle cx="0" cy="13" r="1" fill="rgba(255,255,255,0)"/>
  <circle cx="1" cy="13" r="1" fill="rgba(255,255,255,0)"/>
  <circle cx="2" cy="13" r="1" fill="rgba(255,255,255,0)"/>
  <circle cx="3" cy="13" r="1" fill="rgba(255,255,255,0)"/>
  <circle cx="4" cy="13" r="1" fill="rgba(255,255,255,0)"/>
  <circle cx="5" cy="13" r="1" fill="rgba(255,255,255,0)"/>
  <circle cx="6" cy="13" r="1" fill="rgba(34,128,5,0.0588235)"/>
  <circle cx="7" cy="13" r="1" fill="rgba(34,128,5,0.964706)"/>
  <circle cx="8" cy="13" r="1" fill="rgba(50,158,19,1)"/>
  <circle cx="9" cy="13" r="1" fill="rgba(53,160,21,1)"/>
  <circle cx="10" cy="13" r="1" fill="rgba(56,162,25,1)"/>
  <circle cx="11" cy="13" r="1" fill="rgba(58,162,27,1)"/>
  <circle cx="12" cy="13" r="1" fill="rgba(56,161,24,1)"/>
  <circle cx="13" cy="13" r="1" fill="rgba(57,162,25,1)"/>
  <circle cx="14" cy="13" r="1" fill="rgba(52,160,19,1)"/>
  <circle cx="15" cy="13" r="1" fill="rgba(42,154,8,1)"/>
  <circle cx="16" cy="13" r="1" fill="rgba(34,128,5,0.964706)"/>
  <circle cx="17" cy="13" r="1" fill="rgba(34,128,5,0.0588235)"/>
  <circle cx="18" cy="13" r="1" fill="rgba(255,255,255,0)"/>
  <circle cx="19" cy="13" r="1" fill="rgba(255,255,255,0)"/>
  <circle cx="20" cy="13" r="1" fill="rgba(255,255,255,0)"/>
  <circle cx="21" cy="13" r="1" fill="rgba(255,255,255,0)"/>
  <circle cx="22" cy="13" r="1" fill="rgba(255,255,255,0)"/>
  <circle cx="23" cy="13" r="1" fill="rgba(255,255,255,0)"/>
  <circle cx="0" cy="14" r="1" fill="rgba(255,255,255,0)"/>
  <circle cx="1" cy="14" r="1" fill="rgba(255,255,255,0)"/>
  <circle cx="2" cy="14" r="1" fill="rgba(255,255,255,0)"/>
  <circle cx="3" cy="14" r="1" fill="rgba(255,255,255,0)"/>
  <circle cx="4" cy="14" r="1" fill="rgba(255,255,255,0)"/>
  <circle cx="5" cy="14" r="1" fill="rgba(255,255,255,0)"/>
  <circle cx="6" cy="14" r="1" fill="rgba(255,255,255,0)"/>
  <circle cx="7" cy="14" r="1" fill="rgba(34,128,5,0.6)"/>
  <circle cx="8" cy="14" r="1" fill="rgba(40,144,8,1)"/>
  <circle cx="9" cy="14" r="1" fill="rgba(40,154,4,1)"/>
  <circle cx="10" cy="14" r="1" fill="rgba(52,160,21,1)"/>
  <circle cx="11" cy="14" r="1" fill="rgba(57,162,26,1)"/>
  <circle cx="12" cy="14" r="1" fill="rgba(45,156,11,1)"/>
  <circle cx="13" cy="14" r="1" fill="rgba(40,154,4,1)"/>
  <circle cx="14" cy="14" r="1" fill="rgba(46,157,11,1)"/>
  <circle cx="15" cy="14" r="1" fill="rgba(44,146,14,1)"/>
  <circle cx="16" cy="14" r="1" fill="rgba(34,128,5,0.6)"/>
  <circle cx="17" cy="14" r="1" fill="rgba(255,255,255,0)"/>
  <circle cx="18" cy="14" r="1" fill="rgba(255,255,255,0)"/>
  <circle cx="19" cy="14" r="1" fill="rgba(255,255,255,0)"/>
  <circle cx="20" cy="14" r="1" fill="rgba(255,255,255,0)"/>
  <circle cx="21" cy="14" r="1" fill="rgba(255,255,255,0)"/>
  <circle cx="22" cy="14" r="1" fill="rgba(255,255,255,0)"/>
  <circle cx="23" cy="14" r="1" fill="rgba(255,255,255,0)"/>
  <circle cx="0" cy="15" r="1" fill="rgba(255,255,255,0)"/>
  <circle cx="1" cy="15" r="1" fill="rgba(255,255,255,0)"/>
  <circle cx="2" cy="15" r="1" fill="rgba(255,255,255,0)"/>
  <circle cx="3" cy="15" r="1" fill="rgba(255,255,255,0)"/>
  <circle cx="4" cy="15" r="1" fill="rgba(255,255,255,0)"/>
  <circle cx="5" cy="15" r="1" fill="rgba(255,255,255,0)"/>
  <circle cx="6" cy="15" r="1" fill="rgba(255,255,255,0)"/>
  <circle cx="7" cy="15" r="1" fill="rgba(34,128,5,0.164706)"/>
  <circle cx="8" cy="15" r="1" fill="rgba(37,133,7,1)"/>
  <circle cx="9" cy="15" r="1" fill="rgba(50,158,17,1)"/>
  <circle cx="10" cy="15" r="1" fill="rgba(46,157,10,1)"/>
  <circle cx="11" cy="15" r="1" fill="rgba(45,156,10,1)"/>
  <circle cx="12" cy="15" r="1" fill="rgba(51,159,19,1)"/>
  <circle cx="13" cy="15" r="1" fill="rgba(45,157,13,1)"/>
  <circle cx="14" cy="15" r="1" fill="rgba(43,155,9,1)"/>
  <circle cx="15" cy="15" r="1" fill="rgba(36,133,6,1)"/>
  <circle cx="16" cy="15" r="1" fill="rgba(34,128,5,0.164706)"/>
  <circle cx="17" cy="15" r="1" fill="rgba(255,255,255,0)"/>
  <circle cx="18" cy="15" r="1" fill="rgba(255,255,255,0)"/>
  <circle cx="19" cy="15" r="1" fill="rgba(255,255,255,0)"/>
  <circle cx="20" cy="15" r="1" fill="rgba(255,255,255,0)"/>
  <circle cx="21" cy="15" r="1" fill="rgba(255,255,255,0)"/>
  <circle cx="22" cy="15" r="1" fill="rgba(255,255,255,0)"/>
  <circle cx="23" cy="15" r="1" fill="rgba(255,255,255,0)"/>
  <circle cx="0" cy="16" r="1" fill="rgba(255,255,255,0)"/>
  <circle cx="1" cy="16" r="1" fill="rgba(255,255,255,0)"/>
  <circle cx="2" cy="16" r="1" fill="rgba(255,255,255,0)"/>
  <circle cx="3" cy="16" r="1" fill="rgba(255,255,255,0)"/>
  <circle cx="4" cy="16" r="1" fill="rgba(255,255,255,0)"/>
  <circle cx="5" cy="16" r="1" fill="rgba(255,255,255,0)"/>
  <circle cx="6" cy="16" r="1" fill="rgba(255,255,255,0)"/>
  <circle cx="7" cy="16" r="1" fill="rgba(255,255,255,0)"/>
  <circle cx="8" cy="16" r="1" fill="rgba(34,128,5,0.717647)"/>
  <circle cx="9" cy="16" r="1" fill="rgba(46,149,15,1)"/>
  <circle cx="10" cy="16" r="1" fill="rgba(53,160,21,1)"/>
  <circle cx="11" cy="16" r="1" fill="rgba(47,157,13,1)"/>
  <circle cx="12" cy="16" r="1" fill="rgba(51,160,20,1)"/>
  <circle cx="13" cy="16" r="1" fill="rgba(57,162,27,1)"/>
  <circle cx="14" cy="16" r="1" fill="rgba(50,151,20,1)"/>
  <circle cx="15" cy="16" r="1" fill="rgba(34,128,5,0.717647)"/>
  <circle cx="16" cy="16" r="1" fill="rgba(255,255,255,0)"/>
  <circle cx="17" cy="16" r="1" fill="rgba(255,255,255,0)"/>
  <circle cx="18" cy="16" r="1" fill="rgba(255,255,255,0)"/>
  <circle cx="19" cy="16" r="1" fill="rgba(255,255,255,0)"/>
  <circle cx="20" cy="16" r="1" fill="rgba(255,255,255,0)"/>
  <circle cx="21" cy="16" r="1" fill="rgba(255,255,255,0)"/>
  <circle cx="22" cy="16" r="1" fill="rgba(255,255,255,0)"/>
  <circle cx="23" cy="16" r="1" fill="rgba(255,255,255,0)"/>
  <circle cx="0" cy="17" r="1" fill="rgba(255,255,255,0)"/>
  <circle cx="1" cy="17" r="1" fill="rgba(255,255,255,0)"/>
  <circle cx="2" cy="17" r="1" fill="rgba(255,255,255,0)"/>
  <circle cx="3" cy="17" r="1" fill="rgba(255,255,255,0)"/>
  <circle cx="4" cy="17" r="1" fill="rgba(255,255,255,0)"/>
  <circle cx="5" cy="17" r="1" fill="rgba(255,255,255,0)"/>
  <circle cx="6" cy="17" r="1" fill="rgba(255,255,255,0)"/>
  <circle cx="7" cy="17" r="1" fill="rgba(255,255,255,0)"/>
  <circle cx="8" cy="17" r="1" fill="rgba(34,128,5,0.235294)"/>
  <circle cx="9" cy="17" r="1" fill="rgba(36,134,6,1)"/>
  <circle cx="10" cy="17" r="1" fill="rgba(53,160,22,1)"/>
  <circle cx="11" cy="17" r="1" fill="rgba(52,160,20,1)"/>
  <circle cx="12" cy="17" r="1" fill="rgba(42,155,7,1)"/>
  <circle cx="13" cy="17" r="1" fill="rgba(44,156,10,1)"/>
  <circle cx="14" cy="17" r="1" fill="rgba(38,135,8,1)"/>
  <circle cx="15" cy="17" r="1" fill="rgba(34,128,5,0.235294)"/>
  <circle cx="16" cy="17" r="1" fill="rgba(255,255,255,0)"/>
  <circle cx="17" cy="17" r="1" fill="rgba(255,255,255,0)"/>
  <circle cx="18" cy="17" r="1" fill="rgba(255,255,255,0)"/>
  <circle cx="19" cy="17" r="1" fill="rgba(255,255,255,0)"/>
  <circle cx="20" cy="17" r="1" fill="rgba(255,255,255,0)"/>
  <circle cx="21" cy="17" r="1" fill="rgba(255,255,255,0)"/>
  <circle cx="22" cy="17" r="1" fill="rgba(255,255,255,0)"/>
  <circle cx="23" cy="17" r="1" fill="rgba(255,255,255,0)"/>
  <circle cx="0" cy="18" r="1" fill="rgba(255,255,255,0)"/>
  <circle cx="1" cy="18" r="1" fill="rgba(255,255,255,0)"/>
  <circle cx="2" cy="18" r="1" fill="rgba(255,255,255,0)"/>
  <circle cx="3" cy="18" r="1" fill="rgba(255,255,255,0)"/>
  <circle cx="4" cy="18" r="1" fill="rgba(255,255,255,0)"/>
  <circle cx="5" cy="18" r="1" fill="rgba(255,255,255,0)"/>
  <circle cx="6" cy="18" r="1" fill="rgba(255,255,255,0)"/>
  <circle cx="7" cy="18" r="1" fill="rgba(255,255,255,0)"/>
  <circle cx="8" cy="18" r="1" fill="rgba(255,255,255,0)"/>
  <circle cx="9" cy="18" r="1" fill="rgba(34,128,5,0.741176)"/>
  <circle cx="10" cy="18" r="1" fill="rgba(42,147,10,1)"/>
  <circle cx="11" cy="18" r="1" fill="rgba(44,156,10,1)"/>
  <circle cx="12" cy="18" r="1" fill="rgba(41,154,6,1)"/>
  <circle cx="13" cy="18" r="1" fill="rgba(40,146,8,1)"/>
  <circle cx="14" cy="18" r="1" fill="rgba(34,128,5,0.741176)"/>
  <circle cx="15" cy="18" r="1" fill="rgba(255,255,255,0)"/>
  <circle cx="16" cy="18" r="1" fill="rgba(255,255,255,0)"/>
  <circle cx="17" cy="18" r="1" fill="rgba(255,255,255,0)"/>
  <circle cx="18" cy="18" r="1" fill="rgba(255,255,255,0)"/>
  <circle cx="19" cy="18" r="1" fill="rgba(255,255,255,0)"/>
  <circle cx="20" cy="18" r="1" fill="rgba(255,255,255,0)"/>
  <circle cx="21" cy="18" r="1" fill="rgba(255,255,255,0)"/>
  <circle cx="22" cy="18" r="1" fill="rgba(255,255,255,0)"/>
  <circle cx="23" cy="18" r="1" fill="rgba(255,255,255,0)"/>
  <circle cx="0" cy="19" r="1" fill="rgba(255,255,255,0)"/>
  <circle cx="1" cy="19" r="1" fill="rgba(255,255,255,0)"/>
  <circle cx="2" cy="19" r="1" fill="rgba(255,255,255,0)"/>
  <circle cx="3" cy="19" r="1" fill="rgba(255,255,255,0)"/>
  <circle cx="4" cy="19" r="1" fill="rgba(255,255,255,0)"/>
  <circle cx="5" cy="19" r="1" fill="rgba(255,255,255,0)"/>
  <circle cx="6" cy="19" r="1" fill="rgba(255,255,255,0)"/>
  <circle cx="7" cy="19" r="1" fill="rgba(255,255,255,0)"/>
  <circle cx="8" cy="19" r="1" fill="rgba(255,255,255,0)"/>
  <circle cx="9" cy="19" r="1" fill="rgba(34,128,5,0.247059)"/>
  <circle cx="10" cy="19" r="1" fill="rgba(38,136,8,1)"/>
  <circle cx="11" cy="19" r="1" fill="rgba(51,159,18,1)"/>
  <circle cx="12" cy="19" r="1" fill="rgba(51,159,20,1)"/>
  <circle cx="13" cy="19" r="1" fill="rgba(38,136,8,1)"/>
  <circle cx="14" cy="19" r="1" fill="rgba(34,128,5,0.258824)"/>
  <circle cx="15" cy="19" r="1" fill="rgba(255,255,255,0)"/>
  <circle cx="16" cy="19" r="1" fill="rgba(255,255,255,0)"/>
  <circle cx="17" cy="19" r="1" fill="rgba(255,255,255,0)"/>
  <circle cx="18" cy="19" r="1" fill="rgba(255,255,255,0)"/>
  <circle cx="19" cy="19" r="1" fill="rgba(255,255,255,0)"/>
  <circle cx="20" cy="19" r="1" fill="rgba(255,255,255,0)"/>
  <circle cx="21" cy="19" r="1" fill="rgba(255,255,255,0)"/>
  <circle cx="22" cy="19" r="1" fill="rgba(255,255,255,0)"/>
  <circle cx="23" cy="19" r="1" fill="rgba(255,255,255,0)"/>
  <circle cx="0" cy="20" r="1" fill="rgba(255,255,255,0)"/>
  <circle cx="1" cy="20" r="1" fill="rgba(255,255,255,0)"/>
  <circle cx="2" cy="20" r="1" fill="rgba(255,255,255,0)"/>
  <circle cx="3" cy="20" r="1" fill="rgba(255,255,255,0)"/>
  <circle cx="4" cy="20" r="1" fill="rgba(255,255,255,0)"/>
  <circle cx="5" cy="20" r="1" fill="rgba(255,255,255,0)"/>
  <circle cx="6" cy="20" r="1" fill="rgba(255,255,255,0)"/>
  <circle cx="7" cy="20" r="1" fill="rgba(255,255,255,0)"/>
  <circle cx="8" cy="20" r="1" fill="rgba(255,255,255,0)"/>
  <circle cx="9" cy="20" r="1" fill="rgba(255,255,255,0)"/>
  <circle cx="10" cy="20" r="1" fill="rgba(34,128,5,0.741176)"/>
  <circle cx="11" cy="20" r="1" fill="rgba(45,149,14,1)"/>
  <circle cx="12" cy="20" r="1" fill="rgba(51,151,22,1)"/>
  <circle cx="13" cy="20" r="1" fill="rgba(34,128,5,0.741176)"/>
  <circle cx="14" cy="20" r="1" fill="rgba(255,255,255,0)"/>
  <circle cx="15" cy="20" r="1" fill="rgba(255,255,255,0)"/>
  <circle cx="16" cy="20" r="1" fill="rgba(255,255,255,0)"/>
  <circle cx="17" cy="20" r="1" fill="rgba(255,255,255,0)"/>
  <circle cx="18" cy="20" r="1" fill="rgba(255,255,255,0)"/>
  <circle cx="19" cy="20" r="1" fill="rgba(255,255,255,0)"/>
  <circle cx="20" cy="20" r="1" fill="rgba(255,255,255,0)"/>
  <circle cx="21" cy="20" r="1" fill="rgba(255,255,255,0)"/>
  <circle cx="22" cy="20" r="1" fill="rgba(255,255,255,0)"/>
  <circle cx="23" cy="20" r="1" fill="rgba(255,255,255,0)"/>
  <circle cx="0" cy="21" r="1" fill="rgba(255,255,255,0)"/>
  <circle cx="1" cy="21" r="1" fill="rgba(255,255,255,0)"/>
  <circle cx="2" cy="21" r="1" fill="rgba(255,255,255,0)"/>
  <circle cx="3" cy="21" r="1" fill="rgba(255,255,255,0)"/>
  <circle cx="4" cy="21" r="1" fill="rgba(255,255,255,0)"/>
  <circle cx="5" cy="21" r="1" fill="rgba(255,255,255,0)"/>
  <circle cx="6" cy="21" r="1" fill="rgba(255,255,255,0)"/>
  <circle cx="7" cy="21" r="1" fill="rgba(255,255,255,0)"/>
  <circle cx="8" cy="21" r="1" fill="rgba(255,255,255,0)"/>
  <circle cx="9" cy="21" r="1" fill="rgba(255,255,255,0)"/>
  <circle cx="10" cy="21" r="1" fill="rgba(34,128,5,0.258824)"/>
  <circle cx="11" cy="21" r="1" fill="rgba(36,135,6,1)"/>
  <circle cx="12" cy="21" r="1" fill="rgba(37,135,6,1)"/>
  <circle cx="13" cy="21" r="1" fill="rgba(34,128,5,0.258824)"/>
  <circle cx="14" cy="21" r="1" fill="rgba(255,255,255,0)"/>
  <circle cx="15" cy="21" r="1" fill="rgba(255,255,255,0)"/>
  <circle cx="16" cy="21" r="1" fill="rgba(255,255,255,0)"/>
  <circle cx="17" cy="21" r="1" fill="rgba(255,255,255,0)"/>
  <circle cx="18" cy="21" r="1" fill="rgba(255,255,255,0)"/>
  <circle cx="19" cy="21" r="1" fill="rgba(255,255,255,0)"/>
  <circle cx="20" cy="21" r="1" fill="rgba(255,255,255,0)"/>
  <circle cx="21" cy="21" r="1" fill="rgba(255,255,255,0)"/>
  <circle cx="22" cy="21" r="1" fill="rgba(255,255,255,0)"/>
  <circle cx="23" cy="21" r="1" fill="rgba(255,255,255,0)"/>
  <circle cx="0" cy="22" r="1" fill="rgba(255,255,255,0)"/>
  <circle cx="1" cy="22" r="1" fill="rgba(255,255,255,0)"/>
  <circle cx="2" cy="22" r="1" fill="rgba(255,255,255,0)"/>
  <circle cx="3" cy="22" r="1" fill="rgba(255,255,255,0)"/>
  <circle cx="4" cy="22" r="1" fill="rgba(255,255,255,0)"/>
  <circle cx="5" cy="22" r="1" fill="rgba(255,255,255,0)"/>
  <circle cx="6" cy="22" r="1" fill="rgba(255,255,255,0)"/>
  <circle cx="7" cy="22" r="1" fill="rgba(255,255,255,0)"/>
  <circle cx="8" cy="22" r="1" fill="rgba(255,255,255,0)"/>
  <circle cx="9" cy="22" r="1" fill="rgba(255,255,255,0)"/>
  <circle cx="10" cy="22" r="1" fill="rgba(255,255,255,0)"/>
  <circle cx="11" cy="22" r="1" fill="rgba(34,128,5,0.764706)"/>
  <circle cx="12" cy="22" r="1" fill="rgba(34,128,5,0.764706)"/>
  <circle cx="13" cy="22" r="1" fill="rgba(255,255,255,0)"/>
  <circle cx="14" cy="22" r="1" fill="rgba(255,255,255,0)"/>
  <circle cx="15" cy="22" r="1" fill="rgba(255,255,255,0)"/>
  <circle cx="16" cy="22" r="1" fill="rgba(255,255,255,0)"/>
  <circle cx="17" cy="22" r="1" fill="rgba(255,255,255,0)"/>
  <circle cx="18" cy="22" r="1" fill="rgba(255,255,255,0)"/>
  <circle cx="19" cy="22" r="1" fill="rgba(255,255,255,0)"/>
  <circle cx="20" cy="22" r="1" fill="rgba(255,255,255,0)"/>
  <circle cx="21" cy="22" r="1" fill="rgba(255,255,255,0)"/>
  <circle cx="22" cy="22" r="1" fill="rgba(255,255,255,0)"/>
  <circle cx="23" cy="22" r="1" fill="rgba(255,255,255,0)"/>
  <circle cx="0" cy="23" r="1" fill="rgba(255,255,255,0)"/>
  <circle cx="1" cy="23" r="1" fill="rgba(255,255,255,0)"/>
  <circle cx="2" cy="23" r="1" fill="rgba(255,255,255,0)"/>
  <circle cx="3" cy="23" r="1" fill="rgba(255,255,255,0)"/>
  <circle cx="4" cy="23" r="1" fill="rgba(255,255,255,0)"/>
  <circle cx="5" cy="23" r="1" fill="rgba(255,255,255,0)"/>
  <circle cx="6" cy="23" r="1" fill="rgba(255,255,255,0)"/>
  <circle cx="7" cy="23" r="1" fill="rgba(255,255,255,0)"/>
  <circle cx="8" cy="23" r="1" fill="rgba(255,255,255,0)"/>
  <circle cx="9" cy="23" r="1" fill="rgba(255,255,255,0)"/>
  <circle cx="10" cy="23" r="1" fill="rgba(255,255,255,0)"/>
  <circle cx="11" cy="23" r="1" fill="rgba(34,128,5,0.258824)"/>
  <circle cx="12" cy="23" r="1" fill="rgba(34,128,5,0.258824)"/>
  <circle cx="13" cy="23" r="1" fill="rgba(255,255,255,0)"/>
  <circle cx="14" cy="23" r="1" fill="rgba(255,255,255,0)"/>
  <circle cx="15" cy="23" r="1" fill="rgba(255,255,255,0)"/>
  <circle cx="16" cy="23" r="1" fill="rgba(255,255,255,0)"/>
  <circle cx="17" cy="23" r="1" fill="rgba(255,255,255,0)"/>
  <circle cx="18" cy="23" r="1" fill="rgba(255,255,255,0)"/>
  <circle cx="19" cy="23" r="1" fill="rgba(255,255,255,0)"/>
  <circle cx="20" cy="23" r="1" fill="rgba(255,255,255,0)"/>
  <circle cx="21" cy="23" r="1" fill="rgba(255,255,255,0)"/>
  <circle cx="22" cy="23" r="1" fill="rgba(255,255,255,0)"/>
  <circle cx="23" cy="23" r="1" fill="rgba(255,255,255,0)"/>
</svg>
